# xmcd
#
# Track frame offsets:
#	150
#	8520
#	18915
#	32947
#	44805
#	58285
#	71550
#	83432
#	94810
#	108105
#	120927
#	133217
#	146092
#	156377
#
# Disc length: 2242 seconds
#
# Revision: 0
# Processed by: cddbd v1.5.1PL0 Copyright (c) Steve Scherf et al.
# Submitted via: dBpowerAMP V4.0
#
DISCID=bb08c00e
DTITLE=Various Artist - Swingin' Tunes From Two Blues Divas
DYEAR=1900
DGENRE=Blues
TTITLE0=Track01 - I Need A Man - Thelma Cooper
TTITLE1=Track02 - Let's Try Agian - Thelma Cooper
TTITLE2=Track03 - Ooh Daddy - Thelma Cooper
TTITLE3=Track04 - Cute Popa - Thelma Cooper
TTITLE4=Track05 - Talk To Me Daddy - Thelma Cooper
TTITLE5=Track06 - Down By The Woodshed - Thelma Cooper
TTITLE6=Track07 - Fanny Duncan [Alternate Take] - Daisy Mae and  Her Hepcats
TTITLE7=Track08 - Fanny Duncan - Daisy Mae and Her Hepcats
TTITLE8=Track09 - Lonesome Playgirl - Daisy Mae and Her Hepcats
TTITLE9=Track10 - Want Me A Man - Daisy May and Her Hepcats
TTITLE10=Track11 - Stuff You Get To Watch - Daisy Mae and Her Hepcats
TTITLE11=Track12 - Woman Trouble  - Daisy Mae and Her Hepcats
TTITLE12=Track13 - Hop Scotch - Daisy Mae and Her Hepcats
TTITLE13=Track14 - Frosty's Groove - Daisy Mae and Her Hepcats
EXTD=
EXTT0=
EXTT1=
EXTT2=
EXTT3=
EXTT4=
EXTT5=
EXTT6=
EXTT7=
EXTT8=
EXTT9=
EXTT10=
EXTT11=
EXTT12=
EXTT13=
PLAYORDER=
